<mxfile host="app.diagrams.net" modified="2023-11-13T14:39:40.635Z" agent="Mozilla/5.0 (Windows NT 10.0; Win64; x64) AppleWebKit/537.36 (KHTML, like Gecko) Chrome/119.0.0.0 Safari/537.36" etag="E11SB2Xcm29orqg0N4vH" version="22.1.0" type="device">
  <diagram name="Page-1" id="pixynpPR6200rgd4amtk">
    <mxGraphModel dx="1615" dy="871" grid="1" gridSize="10" guides="1" tooltips="1" connect="1" arrows="1" fold="1" page="1" pageScale="1" pageWidth="850" pageHeight="1100" math="1" shadow="0">
      <root>
        <mxCell id="0" />
        <mxCell id="1" parent="0" />
        <mxCell id="YC6k3Qt9G7ucdBLYfMGG-1" value="" style="endArrow=classic;html=1;rounded=0;" parent="1" edge="1">
          <mxGeometry width="50" height="50" relative="1" as="geometry">
            <mxPoint x="325" y="1050" as="sourcePoint" />
            <mxPoint x="325" y="990" as="targetPoint" />
          </mxGeometry>
        </mxCell>
        <mxCell id="YC6k3Qt9G7ucdBLYfMGG-19" value="" style="strokeWidth=2;html=1;shape=mxgraph.flowchart.annotation_1;align=left;pointerEvents=1;rotation=90;movable=1;resizable=1;rotatable=1;deletable=1;editable=1;locked=0;connectable=1;" parent="1" vertex="1">
          <mxGeometry x="295.00000000000006" y="950" width="60" height="40" as="geometry" />
        </mxCell>
        <mxCell id="YC6k3Qt9G7ucdBLYfMGG-20" value="" style="endArrow=none;html=1;rounded=0;movable=1;resizable=1;rotatable=1;deletable=1;editable=1;locked=0;connectable=1;entryX=0.169;entryY=-0.035;entryDx=0;entryDy=0;entryPerimeter=0;" parent="1" target="YC6k3Qt9G7ucdBLYfMGG-19" edge="1">
          <mxGeometry width="50" height="50" relative="1" as="geometry">
            <mxPoint x="305.00000000000006" y="950" as="sourcePoint" />
            <mxPoint x="335.00000000000006" y="950.18" as="targetPoint" />
          </mxGeometry>
        </mxCell>
        <mxCell id="YC6k3Qt9G7ucdBLYfMGG-21" value="" style="endArrow=none;html=1;rounded=0;entryX=0.342;entryY=0.012;entryDx=0;entryDy=0;entryPerimeter=0;" parent="1" target="YC6k3Qt9G7ucdBLYfMGG-19" edge="1">
          <mxGeometry width="50" height="50" relative="1" as="geometry">
            <mxPoint x="305" y="960" as="sourcePoint" />
            <mxPoint x="355" y="910" as="targetPoint" />
          </mxGeometry>
        </mxCell>
        <mxCell id="YC6k3Qt9G7ucdBLYfMGG-22" value="" style="endArrow=none;html=1;rounded=0;entryX=0.342;entryY=0.012;entryDx=0;entryDy=0;entryPerimeter=0;" parent="1" edge="1">
          <mxGeometry width="50" height="50" relative="1" as="geometry">
            <mxPoint x="305" y="969.5" as="sourcePoint" />
            <mxPoint x="345" y="970.5" as="targetPoint" />
          </mxGeometry>
        </mxCell>
        <mxCell id="YC6k3Qt9G7ucdBLYfMGG-23" value="" style="endArrow=none;html=1;rounded=0;" parent="1" edge="1">
          <mxGeometry width="50" height="50" relative="1" as="geometry">
            <mxPoint x="305" y="980" as="sourcePoint" />
            <mxPoint x="345" y="980" as="targetPoint" />
          </mxGeometry>
        </mxCell>
        <mxCell id="YC6k3Qt9G7ucdBLYfMGG-24" value="" style="ellipse;whiteSpace=wrap;html=1;aspect=fixed;" parent="1" vertex="1">
          <mxGeometry x="310" y="900" width="30" height="30" as="geometry" />
        </mxCell>
        <mxCell id="YC6k3Qt9G7ucdBLYfMGG-113" value="" style="endArrow=classic;html=1;rounded=0;entryX=1;entryY=0.5;entryDx=0;entryDy=0;entryPerimeter=0;" parent="1" target="YC6k3Qt9G7ucdBLYfMGG-193" edge="1">
          <mxGeometry width="50" height="50" relative="1" as="geometry">
            <mxPoint x="325" y="900" as="sourcePoint" />
            <mxPoint x="330" y="600" as="targetPoint" />
          </mxGeometry>
        </mxCell>
        <mxCell id="YC6k3Qt9G7ucdBLYfMGG-193" value="" style="strokeWidth=2;html=1;shape=mxgraph.flowchart.annotation_1;align=left;pointerEvents=1;rotation=90;movable=1;resizable=1;rotatable=1;deletable=1;editable=1;locked=0;connectable=1;" parent="1" vertex="1">
          <mxGeometry x="294.7" y="810" width="60" height="40" as="geometry" />
        </mxCell>
        <mxCell id="YC6k3Qt9G7ucdBLYfMGG-194" value="" style="endArrow=none;html=1;rounded=0;movable=1;resizable=1;rotatable=1;deletable=1;editable=1;locked=0;connectable=1;entryX=0.169;entryY=-0.035;entryDx=0;entryDy=0;entryPerimeter=0;" parent="1" target="YC6k3Qt9G7ucdBLYfMGG-193" edge="1">
          <mxGeometry width="50" height="50" relative="1" as="geometry">
            <mxPoint x="304.7" y="810" as="sourcePoint" />
            <mxPoint x="334.7" y="810.18" as="targetPoint" />
          </mxGeometry>
        </mxCell>
        <mxCell id="YC6k3Qt9G7ucdBLYfMGG-195" value="" style="endArrow=none;html=1;rounded=0;entryX=0.342;entryY=0.012;entryDx=0;entryDy=0;entryPerimeter=0;movable=1;resizable=1;rotatable=1;deletable=1;editable=1;locked=0;connectable=1;" parent="1" target="YC6k3Qt9G7ucdBLYfMGG-193" edge="1">
          <mxGeometry width="50" height="50" relative="1" as="geometry">
            <mxPoint x="304.7" y="820" as="sourcePoint" />
            <mxPoint x="354.7" y="770" as="targetPoint" />
          </mxGeometry>
        </mxCell>
        <mxCell id="YC6k3Qt9G7ucdBLYfMGG-196" value="" style="endArrow=none;html=1;rounded=0;entryX=0.342;entryY=0.012;entryDx=0;entryDy=0;entryPerimeter=0;movable=1;resizable=1;rotatable=1;deletable=1;editable=1;locked=0;connectable=1;" parent="1" edge="1">
          <mxGeometry width="50" height="50" relative="1" as="geometry">
            <mxPoint x="304.7" y="829.5" as="sourcePoint" />
            <mxPoint x="344.7" y="830.5" as="targetPoint" />
          </mxGeometry>
        </mxCell>
        <mxCell id="YC6k3Qt9G7ucdBLYfMGG-197" value="" style="endArrow=none;html=1;rounded=0;movable=1;resizable=1;rotatable=1;deletable=1;editable=1;locked=0;connectable=1;" parent="1" edge="1">
          <mxGeometry width="50" height="50" relative="1" as="geometry">
            <mxPoint x="304.7" y="840" as="sourcePoint" />
            <mxPoint x="344.7" y="840" as="targetPoint" />
          </mxGeometry>
        </mxCell>
        <mxCell id="YC6k3Qt9G7ucdBLYfMGG-198" value="" style="ellipse;whiteSpace=wrap;html=1;aspect=fixed;movable=1;resizable=1;rotatable=1;deletable=1;editable=1;locked=0;connectable=1;" parent="1" vertex="1">
          <mxGeometry x="194.7" y="730" width="20" height="20" as="geometry" />
        </mxCell>
        <mxCell id="YC6k3Qt9G7ucdBLYfMGG-199" value="" style="ellipse;whiteSpace=wrap;html=1;aspect=fixed;movable=1;resizable=1;rotatable=1;deletable=1;editable=1;locked=0;connectable=1;" parent="1" vertex="1">
          <mxGeometry x="234.7" y="730" width="20" height="20" as="geometry" />
        </mxCell>
        <mxCell id="YC6k3Qt9G7ucdBLYfMGG-200" value="" style="ellipse;whiteSpace=wrap;html=1;aspect=fixed;movable=1;resizable=1;rotatable=1;deletable=1;editable=1;locked=0;connectable=1;" parent="1" vertex="1">
          <mxGeometry x="274.7" y="730" width="20" height="20" as="geometry" />
        </mxCell>
        <mxCell id="YC6k3Qt9G7ucdBLYfMGG-201" value="" style="ellipse;whiteSpace=wrap;html=1;aspect=fixed;movable=1;resizable=1;rotatable=1;deletable=1;editable=1;locked=0;connectable=1;" parent="1" vertex="1">
          <mxGeometry x="414.70000000000005" y="730" width="20" height="20" as="geometry" />
        </mxCell>
        <mxCell id="YC6k3Qt9G7ucdBLYfMGG-202" value="" style="endArrow=none;html=1;rounded=0;movable=1;resizable=1;rotatable=1;deletable=1;editable=1;locked=0;connectable=1;" parent="1" edge="1">
          <mxGeometry width="50" height="50" relative="1" as="geometry">
            <mxPoint x="324.7" y="800" as="sourcePoint" />
            <mxPoint x="324.7" y="780" as="targetPoint" />
          </mxGeometry>
        </mxCell>
        <mxCell id="YC6k3Qt9G7ucdBLYfMGG-203" value="" style="endArrow=none;html=1;rounded=0;entryX=0.5;entryY=1;entryDx=0;entryDy=0;movable=1;resizable=1;rotatable=1;deletable=1;editable=1;locked=0;connectable=1;" parent="1" target="YC6k3Qt9G7ucdBLYfMGG-198" edge="1">
          <mxGeometry width="50" height="50" relative="1" as="geometry">
            <mxPoint x="324.7" y="780" as="sourcePoint" />
            <mxPoint x="374.7" y="730" as="targetPoint" />
          </mxGeometry>
        </mxCell>
        <mxCell id="YC6k3Qt9G7ucdBLYfMGG-204" value="" style="endArrow=none;html=1;rounded=0;entryX=0.5;entryY=1;entryDx=0;entryDy=0;movable=1;resizable=1;rotatable=1;deletable=1;editable=1;locked=0;connectable=1;" parent="1" target="YC6k3Qt9G7ucdBLYfMGG-199" edge="1">
          <mxGeometry width="50" height="50" relative="1" as="geometry">
            <mxPoint x="324.7" y="780" as="sourcePoint" />
            <mxPoint x="374.7" y="730" as="targetPoint" />
          </mxGeometry>
        </mxCell>
        <mxCell id="YC6k3Qt9G7ucdBLYfMGG-205" value="" style="endArrow=none;html=1;rounded=0;entryX=0.5;entryY=1;entryDx=0;entryDy=0;movable=1;resizable=1;rotatable=1;deletable=1;editable=1;locked=0;connectable=1;" parent="1" target="YC6k3Qt9G7ucdBLYfMGG-201" edge="1">
          <mxGeometry width="50" height="50" relative="1" as="geometry">
            <mxPoint x="324.7" y="780" as="sourcePoint" />
            <mxPoint x="374.7" y="730" as="targetPoint" />
          </mxGeometry>
        </mxCell>
        <mxCell id="YC6k3Qt9G7ucdBLYfMGG-206" value="" style="ellipse;whiteSpace=wrap;html=1;aspect=fixed;strokeColor=#000000;fillColor=#000000;movable=1;resizable=1;rotatable=1;deletable=1;editable=1;locked=0;connectable=1;" parent="1" vertex="1">
          <mxGeometry x="319.7" y="735" width="10" height="10" as="geometry" />
        </mxCell>
        <mxCell id="YC6k3Qt9G7ucdBLYfMGG-207" value="" style="ellipse;whiteSpace=wrap;html=1;aspect=fixed;strokeColor=#000000;fillColor=#000000;movable=1;resizable=1;rotatable=1;deletable=1;editable=1;locked=0;connectable=1;" parent="1" vertex="1">
          <mxGeometry x="354.7" y="735" width="10" height="10" as="geometry" />
        </mxCell>
        <mxCell id="YC6k3Qt9G7ucdBLYfMGG-208" value="" style="endArrow=none;html=1;rounded=0;exitX=0.5;exitY=0;exitDx=0;exitDy=0;exitPerimeter=0;movable=1;resizable=1;rotatable=1;deletable=1;editable=1;locked=0;connectable=1;" parent="1" edge="1">
          <mxGeometry width="50" height="50" relative="1" as="geometry">
            <mxPoint x="204.70000000000005" y="730" as="sourcePoint" />
            <mxPoint x="324.7" y="700" as="targetPoint" />
            <Array as="points" />
          </mxGeometry>
        </mxCell>
        <mxCell id="YC6k3Qt9G7ucdBLYfMGG-209" value="" style="endArrow=none;html=1;rounded=0;" parent="1" edge="1">
          <mxGeometry width="50" height="50" relative="1" as="geometry">
            <mxPoint x="244.7" y="730" as="sourcePoint" />
            <mxPoint x="324.7" y="700" as="targetPoint" />
          </mxGeometry>
        </mxCell>
        <mxCell id="YC6k3Qt9G7ucdBLYfMGG-210" value="" style="endArrow=none;html=1;rounded=0;" parent="1" edge="1">
          <mxGeometry width="50" height="50" relative="1" as="geometry">
            <mxPoint x="284.7" y="730" as="sourcePoint" />
            <mxPoint x="324.7" y="700" as="targetPoint" />
          </mxGeometry>
        </mxCell>
        <mxCell id="YC6k3Qt9G7ucdBLYfMGG-211" value="" style="endArrow=none;html=1;rounded=0;exitX=0.593;exitY=0.019;exitDx=0;exitDy=0;exitPerimeter=0;" parent="1" source="YC6k3Qt9G7ucdBLYfMGG-201" edge="1">
          <mxGeometry width="50" height="50" relative="1" as="geometry">
            <mxPoint x="414.70000000000005" y="730" as="sourcePoint" />
            <mxPoint x="324.7" y="700" as="targetPoint" />
          </mxGeometry>
        </mxCell>
        <mxCell id="YC6k3Qt9G7ucdBLYfMGG-212" value="" style="strokeWidth=2;html=1;shape=mxgraph.flowchart.annotation_1;align=left;pointerEvents=1;rotation=90;movable=1;resizable=1;rotatable=1;deletable=1;editable=1;locked=0;connectable=1;" parent="1" vertex="1">
          <mxGeometry x="294.7" y="620" width="60" height="40" as="geometry" />
        </mxCell>
        <mxCell id="YC6k3Qt9G7ucdBLYfMGG-213" value="" style="endArrow=none;html=1;rounded=0;movable=1;resizable=1;rotatable=1;deletable=1;editable=1;locked=0;connectable=1;entryX=0.169;entryY=-0.035;entryDx=0;entryDy=0;entryPerimeter=0;" parent="1" target="YC6k3Qt9G7ucdBLYfMGG-212" edge="1">
          <mxGeometry width="50" height="50" relative="1" as="geometry">
            <mxPoint x="304.7" y="620" as="sourcePoint" />
            <mxPoint x="334.7" y="620.18" as="targetPoint" />
          </mxGeometry>
        </mxCell>
        <mxCell id="YC6k3Qt9G7ucdBLYfMGG-214" value="" style="endArrow=none;html=1;rounded=0;entryX=0.342;entryY=0.012;entryDx=0;entryDy=0;entryPerimeter=0;movable=1;resizable=1;rotatable=1;deletable=1;editable=1;locked=0;connectable=1;" parent="1" target="YC6k3Qt9G7ucdBLYfMGG-212" edge="1">
          <mxGeometry width="50" height="50" relative="1" as="geometry">
            <mxPoint x="304.7" y="630" as="sourcePoint" />
            <mxPoint x="354.7" y="580" as="targetPoint" />
          </mxGeometry>
        </mxCell>
        <mxCell id="YC6k3Qt9G7ucdBLYfMGG-215" value="" style="endArrow=none;html=1;rounded=0;entryX=0.342;entryY=0.012;entryDx=0;entryDy=0;entryPerimeter=0;movable=1;resizable=1;rotatable=1;deletable=1;editable=1;locked=0;connectable=1;" parent="1" edge="1">
          <mxGeometry width="50" height="50" relative="1" as="geometry">
            <mxPoint x="304.7" y="639.5" as="sourcePoint" />
            <mxPoint x="344.7" y="640.5" as="targetPoint" />
          </mxGeometry>
        </mxCell>
        <mxCell id="YC6k3Qt9G7ucdBLYfMGG-216" value="" style="endArrow=none;html=1;rounded=0;movable=1;resizable=1;rotatable=1;deletable=1;editable=1;locked=0;connectable=1;" parent="1" edge="1">
          <mxGeometry width="50" height="50" relative="1" as="geometry">
            <mxPoint x="304.7" y="650" as="sourcePoint" />
            <mxPoint x="344.7" y="650" as="targetPoint" />
          </mxGeometry>
        </mxCell>
        <mxCell id="YC6k3Qt9G7ucdBLYfMGG-217" value="" style="ellipse;whiteSpace=wrap;html=1;aspect=fixed;movable=1;resizable=1;rotatable=1;deletable=1;editable=1;locked=0;connectable=1;" parent="1" vertex="1">
          <mxGeometry x="194.7" y="540" width="20" height="20" as="geometry" />
        </mxCell>
        <mxCell id="YC6k3Qt9G7ucdBLYfMGG-218" value="" style="ellipse;whiteSpace=wrap;html=1;aspect=fixed;movable=1;resizable=1;rotatable=1;deletable=1;editable=1;locked=0;connectable=1;" parent="1" vertex="1">
          <mxGeometry x="234.7" y="540" width="20" height="20" as="geometry" />
        </mxCell>
        <mxCell id="YC6k3Qt9G7ucdBLYfMGG-219" value="" style="ellipse;whiteSpace=wrap;html=1;aspect=fixed;movable=1;resizable=1;rotatable=1;deletable=1;editable=1;locked=0;connectable=1;" parent="1" vertex="1">
          <mxGeometry x="274.7" y="540" width="20" height="20" as="geometry" />
        </mxCell>
        <mxCell id="YC6k3Qt9G7ucdBLYfMGG-220" value="" style="ellipse;whiteSpace=wrap;html=1;aspect=fixed;movable=1;resizable=1;rotatable=1;deletable=1;editable=1;locked=0;connectable=1;" parent="1" vertex="1">
          <mxGeometry x="459.96000000000004" y="543" width="20" height="20" as="geometry" />
        </mxCell>
        <mxCell id="YC6k3Qt9G7ucdBLYfMGG-221" value="" style="endArrow=none;html=1;rounded=0;movable=1;resizable=1;rotatable=1;deletable=1;editable=1;locked=0;connectable=1;" parent="1" edge="1">
          <mxGeometry width="50" height="50" relative="1" as="geometry">
            <mxPoint x="324.7" y="610" as="sourcePoint" />
            <mxPoint x="324.7" y="590" as="targetPoint" />
          </mxGeometry>
        </mxCell>
        <mxCell id="YC6k3Qt9G7ucdBLYfMGG-222" value="" style="endArrow=none;html=1;rounded=0;entryX=0.5;entryY=1;entryDx=0;entryDy=0;movable=1;resizable=1;rotatable=1;deletable=1;editable=1;locked=0;connectable=1;" parent="1" target="YC6k3Qt9G7ucdBLYfMGG-217" edge="1">
          <mxGeometry width="50" height="50" relative="1" as="geometry">
            <mxPoint x="324.7" y="590" as="sourcePoint" />
            <mxPoint x="374.7" y="540" as="targetPoint" />
          </mxGeometry>
        </mxCell>
        <mxCell id="YC6k3Qt9G7ucdBLYfMGG-223" value="" style="endArrow=none;html=1;rounded=0;entryX=0.5;entryY=1;entryDx=0;entryDy=0;movable=1;resizable=1;rotatable=1;deletable=1;editable=1;locked=0;connectable=1;" parent="1" target="YC6k3Qt9G7ucdBLYfMGG-218" edge="1">
          <mxGeometry width="50" height="50" relative="1" as="geometry">
            <mxPoint x="324.7" y="590" as="sourcePoint" />
            <mxPoint x="374.7" y="540" as="targetPoint" />
          </mxGeometry>
        </mxCell>
        <mxCell id="YC6k3Qt9G7ucdBLYfMGG-224" value="" style="endArrow=none;html=1;rounded=0;entryX=0.5;entryY=1;entryDx=0;entryDy=0;movable=1;resizable=1;rotatable=1;deletable=1;editable=1;locked=0;connectable=1;" parent="1" target="YC6k3Qt9G7ucdBLYfMGG-220" edge="1">
          <mxGeometry width="50" height="50" relative="1" as="geometry">
            <mxPoint x="324.7" y="590" as="sourcePoint" />
            <mxPoint x="374.7" y="540" as="targetPoint" />
          </mxGeometry>
        </mxCell>
        <mxCell id="YC6k3Qt9G7ucdBLYfMGG-225" value="" style="ellipse;whiteSpace=wrap;html=1;aspect=fixed;strokeColor=#000000;fillColor=#000000;movable=1;resizable=1;rotatable=1;deletable=1;editable=1;locked=0;connectable=1;" parent="1" vertex="1">
          <mxGeometry x="319.7" y="545" width="10" height="10" as="geometry" />
        </mxCell>
        <mxCell id="YC6k3Qt9G7ucdBLYfMGG-226" value="" style="ellipse;whiteSpace=wrap;html=1;aspect=fixed;strokeColor=#000000;fillColor=#000000;movable=1;resizable=1;rotatable=1;deletable=1;editable=1;locked=0;connectable=1;" parent="1" vertex="1">
          <mxGeometry x="354.7" y="545" width="10" height="10" as="geometry" />
        </mxCell>
        <mxCell id="YC6k3Qt9G7ucdBLYfMGG-227" value="" style="endArrow=none;html=1;rounded=0;exitX=0.5;exitY=0;exitDx=0;exitDy=0;exitPerimeter=0;movable=1;resizable=1;rotatable=1;deletable=1;editable=1;locked=0;connectable=1;" parent="1" edge="1">
          <mxGeometry width="50" height="50" relative="1" as="geometry">
            <mxPoint x="204.70000000000005" y="540" as="sourcePoint" />
            <mxPoint x="324.7" y="510" as="targetPoint" />
            <Array as="points" />
          </mxGeometry>
        </mxCell>
        <mxCell id="YC6k3Qt9G7ucdBLYfMGG-228" value="" style="endArrow=none;html=1;rounded=0;" parent="1" edge="1">
          <mxGeometry width="50" height="50" relative="1" as="geometry">
            <mxPoint x="244.7" y="540" as="sourcePoint" />
            <mxPoint x="324.7" y="510" as="targetPoint" />
          </mxGeometry>
        </mxCell>
        <mxCell id="YC6k3Qt9G7ucdBLYfMGG-229" value="" style="endArrow=none;html=1;rounded=0;" parent="1" edge="1">
          <mxGeometry width="50" height="50" relative="1" as="geometry">
            <mxPoint x="284.7" y="540" as="sourcePoint" />
            <mxPoint x="324.7" y="510" as="targetPoint" />
          </mxGeometry>
        </mxCell>
        <mxCell id="YC6k3Qt9G7ucdBLYfMGG-230" value="" style="endArrow=none;html=1;rounded=0;exitX=0.265;exitY=0.113;exitDx=0;exitDy=0;exitPerimeter=0;" parent="1" source="YC6k3Qt9G7ucdBLYfMGG-220" edge="1">
          <mxGeometry width="50" height="50" relative="1" as="geometry">
            <mxPoint x="414.70000000000005" y="540" as="sourcePoint" />
            <mxPoint x="324.7" y="510" as="targetPoint" />
          </mxGeometry>
        </mxCell>
        <mxCell id="YC6k3Qt9G7ucdBLYfMGG-231" value="" style="endArrow=classic;html=1;rounded=0;entryX=1;entryY=0.5;entryDx=0;entryDy=0;entryPerimeter=0;" parent="1" target="YC6k3Qt9G7ucdBLYfMGG-212" edge="1">
          <mxGeometry width="50" height="50" relative="1" as="geometry">
            <mxPoint x="324.7" y="700" as="sourcePoint" />
            <mxPoint x="374.7" y="650" as="targetPoint" />
          </mxGeometry>
        </mxCell>
        <mxCell id="YC6k3Qt9G7ucdBLYfMGG-232" value="" style="endArrow=classic;html=1;rounded=0;" parent="1" edge="1">
          <mxGeometry width="50" height="50" relative="1" as="geometry">
            <mxPoint x="324.7" y="510" as="sourcePoint" />
            <mxPoint x="324.7" y="410" as="targetPoint" />
          </mxGeometry>
        </mxCell>
        <mxCell id="YC6k3Qt9G7ucdBLYfMGG-252" value="" style="strokeWidth=2;html=1;shape=mxgraph.flowchart.annotation_1;align=left;pointerEvents=1;rotation=90;movable=1;resizable=1;rotatable=1;deletable=1;editable=1;locked=0;connectable=1;" parent="1" vertex="1">
          <mxGeometry x="564.7" y="450" width="60" height="40" as="geometry" />
        </mxCell>
        <mxCell id="YC6k3Qt9G7ucdBLYfMGG-253" value="" style="endArrow=none;html=1;rounded=0;movable=1;resizable=1;rotatable=1;deletable=1;editable=1;locked=0;connectable=1;entryX=0.169;entryY=-0.035;entryDx=0;entryDy=0;entryPerimeter=0;" parent="1" target="YC6k3Qt9G7ucdBLYfMGG-252" edge="1">
          <mxGeometry width="50" height="50" relative="1" as="geometry">
            <mxPoint x="574.7" y="450" as="sourcePoint" />
            <mxPoint x="604.7" y="450.17999999999995" as="targetPoint" />
          </mxGeometry>
        </mxCell>
        <mxCell id="YC6k3Qt9G7ucdBLYfMGG-254" value="" style="endArrow=none;html=1;rounded=0;entryX=0.342;entryY=0.012;entryDx=0;entryDy=0;entryPerimeter=0;movable=1;resizable=1;rotatable=1;deletable=1;editable=1;locked=0;connectable=1;" parent="1" target="YC6k3Qt9G7ucdBLYfMGG-252" edge="1">
          <mxGeometry width="50" height="50" relative="1" as="geometry">
            <mxPoint x="574.7" y="460" as="sourcePoint" />
            <mxPoint x="624.7" y="410" as="targetPoint" />
          </mxGeometry>
        </mxCell>
        <mxCell id="YC6k3Qt9G7ucdBLYfMGG-255" value="" style="endArrow=none;html=1;rounded=0;entryX=0.342;entryY=0.012;entryDx=0;entryDy=0;entryPerimeter=0;movable=1;resizable=1;rotatable=1;deletable=1;editable=1;locked=0;connectable=1;" parent="1" edge="1">
          <mxGeometry width="50" height="50" relative="1" as="geometry">
            <mxPoint x="574.7" y="469.5" as="sourcePoint" />
            <mxPoint x="614.7" y="470.5" as="targetPoint" />
          </mxGeometry>
        </mxCell>
        <mxCell id="YC6k3Qt9G7ucdBLYfMGG-256" value="" style="endArrow=none;html=1;rounded=0;movable=1;resizable=1;rotatable=1;deletable=1;editable=1;locked=0;connectable=1;" parent="1" edge="1">
          <mxGeometry width="50" height="50" relative="1" as="geometry">
            <mxPoint x="574.7" y="480" as="sourcePoint" />
            <mxPoint x="614.7" y="480" as="targetPoint" />
          </mxGeometry>
        </mxCell>
        <mxCell id="YC6k3Qt9G7ucdBLYfMGG-257" value="" style="ellipse;whiteSpace=wrap;html=1;aspect=fixed;movable=1;resizable=1;rotatable=1;deletable=1;editable=1;locked=0;connectable=1;" parent="1" vertex="1">
          <mxGeometry x="464.70000000000005" y="370" width="20" height="20" as="geometry" />
        </mxCell>
        <mxCell id="YC6k3Qt9G7ucdBLYfMGG-258" value="" style="ellipse;whiteSpace=wrap;html=1;aspect=fixed;movable=1;resizable=1;rotatable=1;deletable=1;editable=1;locked=0;connectable=1;" parent="1" vertex="1">
          <mxGeometry x="504.70000000000005" y="370" width="20" height="20" as="geometry" />
        </mxCell>
        <mxCell id="YC6k3Qt9G7ucdBLYfMGG-259" value="" style="ellipse;whiteSpace=wrap;html=1;aspect=fixed;movable=1;resizable=1;rotatable=1;deletable=1;editable=1;locked=0;connectable=1;" parent="1" vertex="1">
          <mxGeometry x="544.7" y="370" width="20" height="20" as="geometry" />
        </mxCell>
        <mxCell id="YC6k3Qt9G7ucdBLYfMGG-260" value="" style="ellipse;whiteSpace=wrap;html=1;aspect=fixed;movable=1;resizable=1;rotatable=1;deletable=1;editable=1;locked=0;connectable=1;" parent="1" vertex="1">
          <mxGeometry x="680" y="370" width="20" height="20" as="geometry" />
        </mxCell>
        <mxCell id="YC6k3Qt9G7ucdBLYfMGG-261" value="" style="endArrow=none;html=1;rounded=0;movable=1;resizable=1;rotatable=1;deletable=1;editable=1;locked=0;connectable=1;" parent="1" edge="1">
          <mxGeometry width="50" height="50" relative="1" as="geometry">
            <mxPoint x="594.7" y="440" as="sourcePoint" />
            <mxPoint x="594.7" y="420" as="targetPoint" />
          </mxGeometry>
        </mxCell>
        <mxCell id="YC6k3Qt9G7ucdBLYfMGG-262" value="" style="endArrow=none;html=1;rounded=0;entryX=0.5;entryY=1;entryDx=0;entryDy=0;movable=1;resizable=1;rotatable=1;deletable=1;editable=1;locked=0;connectable=1;" parent="1" target="YC6k3Qt9G7ucdBLYfMGG-257" edge="1">
          <mxGeometry width="50" height="50" relative="1" as="geometry">
            <mxPoint x="594.7" y="420" as="sourcePoint" />
            <mxPoint x="644.7" y="370" as="targetPoint" />
          </mxGeometry>
        </mxCell>
        <mxCell id="YC6k3Qt9G7ucdBLYfMGG-263" value="" style="endArrow=none;html=1;rounded=0;entryX=0.5;entryY=1;entryDx=0;entryDy=0;movable=1;resizable=1;rotatable=1;deletable=1;editable=1;locked=0;connectable=1;" parent="1" target="YC6k3Qt9G7ucdBLYfMGG-258" edge="1">
          <mxGeometry width="50" height="50" relative="1" as="geometry">
            <mxPoint x="594.7" y="420" as="sourcePoint" />
            <mxPoint x="644.7" y="370" as="targetPoint" />
          </mxGeometry>
        </mxCell>
        <mxCell id="YC6k3Qt9G7ucdBLYfMGG-264" value="" style="endArrow=none;html=1;rounded=0;entryX=0.5;entryY=1;entryDx=0;entryDy=0;movable=1;resizable=1;rotatable=1;deletable=1;editable=1;locked=0;connectable=1;" parent="1" target="YC6k3Qt9G7ucdBLYfMGG-260" edge="1">
          <mxGeometry width="50" height="50" relative="1" as="geometry">
            <mxPoint x="590" y="420" as="sourcePoint" />
            <mxPoint x="650" y="350" as="targetPoint" />
            <Array as="points">
              <mxPoint x="600" y="420" />
            </Array>
          </mxGeometry>
        </mxCell>
        <mxCell id="YC6k3Qt9G7ucdBLYfMGG-265" value="" style="ellipse;whiteSpace=wrap;html=1;aspect=fixed;strokeColor=#000000;fillColor=#000000;movable=1;resizable=1;rotatable=1;deletable=1;editable=1;locked=0;connectable=1;" parent="1" vertex="1">
          <mxGeometry x="589.7" y="375" width="10" height="10" as="geometry" />
        </mxCell>
        <mxCell id="YC6k3Qt9G7ucdBLYfMGG-266" value="" style="ellipse;whiteSpace=wrap;html=1;aspect=fixed;strokeColor=#000000;fillColor=#000000;movable=1;resizable=1;rotatable=1;deletable=1;editable=1;locked=0;connectable=1;" parent="1" vertex="1">
          <mxGeometry x="624.7" y="375" width="10" height="10" as="geometry" />
        </mxCell>
        <mxCell id="YC6k3Qt9G7ucdBLYfMGG-267" value="" style="endArrow=none;html=1;rounded=0;exitX=0.5;exitY=0;exitDx=0;exitDy=0;exitPerimeter=0;movable=1;resizable=1;rotatable=1;deletable=1;editable=1;locked=0;connectable=1;" parent="1" edge="1">
          <mxGeometry width="50" height="50" relative="1" as="geometry">
            <mxPoint x="474.70000000000005" y="370" as="sourcePoint" />
            <mxPoint x="594.7" y="340" as="targetPoint" />
            <Array as="points" />
          </mxGeometry>
        </mxCell>
        <mxCell id="YC6k3Qt9G7ucdBLYfMGG-268" value="" style="endArrow=none;html=1;rounded=0;" parent="1" edge="1">
          <mxGeometry width="50" height="50" relative="1" as="geometry">
            <mxPoint x="514.7" y="370" as="sourcePoint" />
            <mxPoint x="594.7" y="340" as="targetPoint" />
          </mxGeometry>
        </mxCell>
        <mxCell id="YC6k3Qt9G7ucdBLYfMGG-269" value="" style="endArrow=none;html=1;rounded=0;" parent="1" edge="1">
          <mxGeometry width="50" height="50" relative="1" as="geometry">
            <mxPoint x="554.7" y="370" as="sourcePoint" />
            <mxPoint x="594.7" y="340" as="targetPoint" />
          </mxGeometry>
        </mxCell>
        <mxCell id="YC6k3Qt9G7ucdBLYfMGG-270" value="" style="endArrow=none;html=1;rounded=0;exitX=0.5;exitY=0;exitDx=0;exitDy=0;" parent="1" source="YC6k3Qt9G7ucdBLYfMGG-260" edge="1">
          <mxGeometry width="50" height="50" relative="1" as="geometry">
            <mxPoint x="690.0000000000002" y="372.2600000000002" as="sourcePoint" />
            <mxPoint x="594.7" y="340" as="targetPoint" />
          </mxGeometry>
        </mxCell>
        <mxCell id="YC6k3Qt9G7ucdBLYfMGG-273" value="" style="endArrow=none;html=1;rounded=0;" parent="1" edge="1">
          <mxGeometry width="50" height="50" relative="1" as="geometry">
            <mxPoint x="324.7" y="510" as="sourcePoint" />
            <mxPoint x="594.7" y="510" as="targetPoint" />
          </mxGeometry>
        </mxCell>
        <mxCell id="YC6k3Qt9G7ucdBLYfMGG-274" value="" style="endArrow=classic;html=1;rounded=0;" parent="1" target="YC6k3Qt9G7ucdBLYfMGG-252" edge="1">
          <mxGeometry width="50" height="50" relative="1" as="geometry">
            <mxPoint x="594.7" y="510" as="sourcePoint" />
            <mxPoint x="644.7" y="460" as="targetPoint" />
          </mxGeometry>
        </mxCell>
        <mxCell id="YC6k3Qt9G7ucdBLYfMGG-275" value="" style="endArrow=none;html=1;rounded=0;" parent="1" edge="1">
          <mxGeometry width="50" height="50" relative="1" as="geometry">
            <mxPoint x="274.7" y="410" as="sourcePoint" />
            <mxPoint x="384.7" y="410" as="targetPoint" />
          </mxGeometry>
        </mxCell>
        <mxCell id="YC6k3Qt9G7ucdBLYfMGG-276" value="" style="strokeWidth=2;html=1;shape=mxgraph.flowchart.annotation_1;align=left;pointerEvents=1;rotation=90;movable=1;resizable=1;rotatable=1;deletable=1;editable=1;locked=0;connectable=1;" parent="1" vertex="1">
          <mxGeometry x="244.70000000000005" y="335" width="60" height="40" as="geometry" />
        </mxCell>
        <mxCell id="YC6k3Qt9G7ucdBLYfMGG-277" value="" style="endArrow=none;html=1;rounded=0;movable=1;resizable=1;rotatable=1;deletable=1;editable=1;locked=0;connectable=1;entryX=0.169;entryY=-0.035;entryDx=0;entryDy=0;entryPerimeter=0;" parent="1" target="YC6k3Qt9G7ucdBLYfMGG-276" edge="1">
          <mxGeometry width="50" height="50" relative="1" as="geometry">
            <mxPoint x="254.70000000000005" y="335" as="sourcePoint" />
            <mxPoint x="284.70000000000005" y="335.17999999999995" as="targetPoint" />
          </mxGeometry>
        </mxCell>
        <mxCell id="YC6k3Qt9G7ucdBLYfMGG-278" value="" style="endArrow=none;html=1;rounded=0;entryX=0.342;entryY=0.012;entryDx=0;entryDy=0;entryPerimeter=0;" parent="1" target="YC6k3Qt9G7ucdBLYfMGG-276" edge="1">
          <mxGeometry width="50" height="50" relative="1" as="geometry">
            <mxPoint x="254.7" y="345" as="sourcePoint" />
            <mxPoint x="304.7" y="295" as="targetPoint" />
          </mxGeometry>
        </mxCell>
        <mxCell id="YC6k3Qt9G7ucdBLYfMGG-279" value="" style="endArrow=none;html=1;rounded=0;entryX=0.342;entryY=0.012;entryDx=0;entryDy=0;entryPerimeter=0;" parent="1" edge="1">
          <mxGeometry width="50" height="50" relative="1" as="geometry">
            <mxPoint x="254.7" y="354.5" as="sourcePoint" />
            <mxPoint x="294.7" y="355.5" as="targetPoint" />
          </mxGeometry>
        </mxCell>
        <mxCell id="YC6k3Qt9G7ucdBLYfMGG-280" value="" style="endArrow=none;html=1;rounded=0;" parent="1" edge="1">
          <mxGeometry width="50" height="50" relative="1" as="geometry">
            <mxPoint x="254.7" y="365" as="sourcePoint" />
            <mxPoint x="294.7" y="365" as="targetPoint" />
          </mxGeometry>
        </mxCell>
        <mxCell id="YC6k3Qt9G7ucdBLYfMGG-281" value="" style="strokeWidth=2;html=1;shape=mxgraph.flowchart.annotation_1;align=left;pointerEvents=1;rotation=90;movable=1;resizable=1;rotatable=1;deletable=1;editable=1;locked=0;connectable=1;" parent="1" vertex="1">
          <mxGeometry x="349.70000000000005" y="335" width="60" height="40" as="geometry" />
        </mxCell>
        <mxCell id="YC6k3Qt9G7ucdBLYfMGG-282" value="" style="endArrow=none;html=1;rounded=0;movable=1;resizable=1;rotatable=1;deletable=1;editable=1;locked=0;connectable=1;entryX=0.169;entryY=-0.035;entryDx=0;entryDy=0;entryPerimeter=0;" parent="1" target="YC6k3Qt9G7ucdBLYfMGG-281" edge="1">
          <mxGeometry width="50" height="50" relative="1" as="geometry">
            <mxPoint x="359.70000000000005" y="335" as="sourcePoint" />
            <mxPoint x="389.70000000000005" y="335.17999999999995" as="targetPoint" />
          </mxGeometry>
        </mxCell>
        <mxCell id="YC6k3Qt9G7ucdBLYfMGG-283" value="" style="endArrow=none;html=1;rounded=0;entryX=0.342;entryY=0.012;entryDx=0;entryDy=0;entryPerimeter=0;" parent="1" target="YC6k3Qt9G7ucdBLYfMGG-281" edge="1">
          <mxGeometry width="50" height="50" relative="1" as="geometry">
            <mxPoint x="359.7" y="345" as="sourcePoint" />
            <mxPoint x="409.7" y="295" as="targetPoint" />
          </mxGeometry>
        </mxCell>
        <mxCell id="YC6k3Qt9G7ucdBLYfMGG-284" value="" style="endArrow=none;html=1;rounded=0;entryX=0.342;entryY=0.012;entryDx=0;entryDy=0;entryPerimeter=0;" parent="1" edge="1">
          <mxGeometry width="50" height="50" relative="1" as="geometry">
            <mxPoint x="359.7" y="354.5" as="sourcePoint" />
            <mxPoint x="399.7" y="355.5" as="targetPoint" />
          </mxGeometry>
        </mxCell>
        <mxCell id="YC6k3Qt9G7ucdBLYfMGG-285" value="" style="endArrow=none;html=1;rounded=0;" parent="1" edge="1">
          <mxGeometry width="50" height="50" relative="1" as="geometry">
            <mxPoint x="359.7" y="365" as="sourcePoint" />
            <mxPoint x="399.7" y="365" as="targetPoint" />
          </mxGeometry>
        </mxCell>
        <mxCell id="YC6k3Qt9G7ucdBLYfMGG-286" value="" style="endArrow=classic;html=1;rounded=0;" parent="1" target="YC6k3Qt9G7ucdBLYfMGG-276" edge="1">
          <mxGeometry width="50" height="50" relative="1" as="geometry">
            <mxPoint x="274.7" y="410" as="sourcePoint" />
            <mxPoint x="324.7" y="370" as="targetPoint" />
          </mxGeometry>
        </mxCell>
        <mxCell id="YC6k3Qt9G7ucdBLYfMGG-287" value="" style="endArrow=classic;html=1;rounded=0;entryX=0.973;entryY=0.382;entryDx=0;entryDy=0;entryPerimeter=0;" parent="1" target="YC6k3Qt9G7ucdBLYfMGG-281" edge="1">
          <mxGeometry width="50" height="50" relative="1" as="geometry">
            <mxPoint x="384.7" y="410" as="sourcePoint" />
            <mxPoint x="434.70000000000005" y="360" as="targetPoint" />
          </mxGeometry>
        </mxCell>
        <mxCell id="YC6k3Qt9G7ucdBLYfMGG-288" value="" style="endArrow=none;html=1;rounded=0;exitX=0;exitY=0.5;exitDx=0;exitDy=0;exitPerimeter=0;" parent="1" source="YC6k3Qt9G7ucdBLYfMGG-276" edge="1">
          <mxGeometry width="50" height="50" relative="1" as="geometry">
            <mxPoint x="274.7" y="320" as="sourcePoint" />
            <mxPoint x="274.7" y="310" as="targetPoint" />
          </mxGeometry>
        </mxCell>
        <mxCell id="YC6k3Qt9G7ucdBLYfMGG-289" value="" style="endArrow=none;html=1;rounded=0;" parent="1" edge="1">
          <mxGeometry width="50" height="50" relative="1" as="geometry">
            <mxPoint x="274.7" y="310" as="sourcePoint" />
            <mxPoint x="384.7" y="310" as="targetPoint" />
          </mxGeometry>
        </mxCell>
        <mxCell id="YC6k3Qt9G7ucdBLYfMGG-290" value="" style="endArrow=none;html=1;rounded=0;exitX=0.006;exitY=0.395;exitDx=0;exitDy=0;exitPerimeter=0;" parent="1" source="YC6k3Qt9G7ucdBLYfMGG-281" edge="1">
          <mxGeometry width="50" height="50" relative="1" as="geometry">
            <mxPoint x="384.7" y="320" as="sourcePoint" />
            <mxPoint x="383.7" y="310" as="targetPoint" />
          </mxGeometry>
        </mxCell>
        <mxCell id="YC6k3Qt9G7ucdBLYfMGG-291" value="" style="endArrow=none;html=1;rounded=0;movable=1;resizable=1;rotatable=1;deletable=1;editable=1;locked=0;connectable=1;" parent="1" edge="1">
          <mxGeometry width="50" height="50" relative="1" as="geometry">
            <mxPoint x="324.53" y="310" as="sourcePoint" />
            <mxPoint x="324.53" y="290" as="targetPoint" />
          </mxGeometry>
        </mxCell>
        <mxCell id="YC6k3Qt9G7ucdBLYfMGG-293" value="" style="ellipse;whiteSpace=wrap;html=1;aspect=fixed;movable=1;resizable=1;rotatable=1;deletable=1;editable=1;locked=0;connectable=1;" parent="1" vertex="1">
          <mxGeometry x="194.7" y="240" width="20" height="20" as="geometry" />
        </mxCell>
        <mxCell id="YC6k3Qt9G7ucdBLYfMGG-294" value="" style="ellipse;whiteSpace=wrap;html=1;aspect=fixed;movable=1;resizable=1;rotatable=1;deletable=1;editable=1;locked=0;connectable=1;" parent="1" vertex="1">
          <mxGeometry x="234.7" y="240" width="20" height="20" as="geometry" />
        </mxCell>
        <mxCell id="YC6k3Qt9G7ucdBLYfMGG-295" value="" style="ellipse;whiteSpace=wrap;html=1;aspect=fixed;movable=1;resizable=1;rotatable=1;deletable=1;editable=1;locked=0;connectable=1;" parent="1" vertex="1">
          <mxGeometry x="274.7" y="240" width="20" height="20" as="geometry" />
        </mxCell>
        <mxCell id="YC6k3Qt9G7ucdBLYfMGG-296" value="" style="ellipse;whiteSpace=wrap;html=1;aspect=fixed;movable=1;resizable=1;rotatable=1;deletable=1;editable=1;locked=0;connectable=1;" parent="1" vertex="1">
          <mxGeometry x="414.70000000000005" y="240" width="20" height="20" as="geometry" />
        </mxCell>
        <mxCell id="YC6k3Qt9G7ucdBLYfMGG-297" value="" style="endArrow=none;html=1;rounded=0;entryX=0.5;entryY=1;entryDx=0;entryDy=0;movable=1;resizable=1;rotatable=1;deletable=1;editable=1;locked=0;connectable=1;" parent="1" target="YC6k3Qt9G7ucdBLYfMGG-293" edge="1">
          <mxGeometry width="50" height="50" relative="1" as="geometry">
            <mxPoint x="324.7" y="290" as="sourcePoint" />
            <mxPoint x="374.7" y="240" as="targetPoint" />
          </mxGeometry>
        </mxCell>
        <mxCell id="YC6k3Qt9G7ucdBLYfMGG-298" value="" style="endArrow=none;html=1;rounded=0;entryX=0.5;entryY=1;entryDx=0;entryDy=0;movable=1;resizable=1;rotatable=1;deletable=1;editable=1;locked=0;connectable=1;" parent="1" target="YC6k3Qt9G7ucdBLYfMGG-294" edge="1">
          <mxGeometry width="50" height="50" relative="1" as="geometry">
            <mxPoint x="324.7" y="290" as="sourcePoint" />
            <mxPoint x="374.7" y="240" as="targetPoint" />
          </mxGeometry>
        </mxCell>
        <mxCell id="YC6k3Qt9G7ucdBLYfMGG-299" value="" style="endArrow=none;html=1;rounded=0;entryX=0.5;entryY=1;entryDx=0;entryDy=0;movable=1;resizable=1;rotatable=1;deletable=1;editable=1;locked=0;connectable=1;" parent="1" target="YC6k3Qt9G7ucdBLYfMGG-296" edge="1">
          <mxGeometry width="50" height="50" relative="1" as="geometry">
            <mxPoint x="324.7" y="290" as="sourcePoint" />
            <mxPoint x="374.7" y="240" as="targetPoint" />
          </mxGeometry>
        </mxCell>
        <mxCell id="YC6k3Qt9G7ucdBLYfMGG-300" value="" style="ellipse;whiteSpace=wrap;html=1;aspect=fixed;strokeColor=#000000;fillColor=#000000;movable=1;resizable=1;rotatable=1;deletable=1;editable=1;locked=0;connectable=1;" parent="1" vertex="1">
          <mxGeometry x="319.7" y="245" width="10" height="10" as="geometry" />
        </mxCell>
        <mxCell id="YC6k3Qt9G7ucdBLYfMGG-301" value="" style="ellipse;whiteSpace=wrap;html=1;aspect=fixed;strokeColor=#000000;fillColor=#000000;movable=1;resizable=1;rotatable=1;deletable=1;editable=1;locked=0;connectable=1;" parent="1" vertex="1">
          <mxGeometry x="354.7" y="245" width="10" height="10" as="geometry" />
        </mxCell>
        <mxCell id="YC6k3Qt9G7ucdBLYfMGG-302" value="" style="endArrow=none;html=1;rounded=0;exitX=0.5;exitY=0;exitDx=0;exitDy=0;exitPerimeter=0;movable=1;resizable=1;rotatable=1;deletable=1;editable=1;locked=0;connectable=1;" parent="1" edge="1">
          <mxGeometry width="50" height="50" relative="1" as="geometry">
            <mxPoint x="204.7" y="240" as="sourcePoint" />
            <mxPoint x="324.7" y="210" as="targetPoint" />
            <Array as="points" />
          </mxGeometry>
        </mxCell>
        <mxCell id="YC6k3Qt9G7ucdBLYfMGG-303" value="" style="endArrow=none;html=1;rounded=0;" parent="1" edge="1">
          <mxGeometry width="50" height="50" relative="1" as="geometry">
            <mxPoint x="244.7" y="240" as="sourcePoint" />
            <mxPoint x="324.7" y="210" as="targetPoint" />
          </mxGeometry>
        </mxCell>
        <mxCell id="YC6k3Qt9G7ucdBLYfMGG-304" value="" style="endArrow=none;html=1;rounded=0;" parent="1" edge="1">
          <mxGeometry width="50" height="50" relative="1" as="geometry">
            <mxPoint x="284.7" y="240" as="sourcePoint" />
            <mxPoint x="324.7" y="210" as="targetPoint" />
          </mxGeometry>
        </mxCell>
        <mxCell id="YC6k3Qt9G7ucdBLYfMGG-305" value="" style="endArrow=none;html=1;rounded=0;exitX=0.265;exitY=0.113;exitDx=0;exitDy=0;exitPerimeter=0;" parent="1" source="YC6k3Qt9G7ucdBLYfMGG-296" edge="1">
          <mxGeometry width="50" height="50" relative="1" as="geometry">
            <mxPoint x="414.70000000000005" y="240" as="sourcePoint" />
            <mxPoint x="324.7" y="210" as="targetPoint" />
          </mxGeometry>
        </mxCell>
        <mxCell id="YC6k3Qt9G7ucdBLYfMGG-306" value="" style="endArrow=classic;html=1;rounded=0;" parent="1" edge="1">
          <mxGeometry width="50" height="50" relative="1" as="geometry">
            <mxPoint x="324.7" y="210" as="sourcePoint" />
            <mxPoint x="324.7" y="170" as="targetPoint" />
          </mxGeometry>
        </mxCell>
        <mxCell id="YC6k3Qt9G7ucdBLYfMGG-307" value="" style="endArrow=none;html=1;rounded=0;" parent="1" edge="1">
          <mxGeometry width="50" height="50" relative="1" as="geometry">
            <mxPoint x="594.7" y="340" as="sourcePoint" />
            <mxPoint x="594.7" y="330" as="targetPoint" />
          </mxGeometry>
        </mxCell>
        <mxCell id="YC6k3Qt9G7ucdBLYfMGG-308" value="" style="endArrow=none;html=1;rounded=0;" parent="1" edge="1">
          <mxGeometry width="50" height="50" relative="1" as="geometry">
            <mxPoint x="444.70000000000005" y="330" as="sourcePoint" />
            <mxPoint x="594.7" y="330" as="targetPoint" />
          </mxGeometry>
        </mxCell>
        <mxCell id="YC6k3Qt9G7ucdBLYfMGG-309" value="" style="endArrow=none;html=1;rounded=0;" parent="1" edge="1">
          <mxGeometry width="50" height="50" relative="1" as="geometry">
            <mxPoint x="444.70000000000005" y="460" as="sourcePoint" />
            <mxPoint x="444.70000000000005" y="330" as="targetPoint" />
          </mxGeometry>
        </mxCell>
        <mxCell id="YC6k3Qt9G7ucdBLYfMGG-310" value="" style="endArrow=classic;html=1;rounded=0;" parent="1" edge="1">
          <mxGeometry width="50" height="50" relative="1" as="geometry">
            <mxPoint x="444.70000000000005" y="460" as="sourcePoint" />
            <mxPoint x="324.7" y="460" as="targetPoint" />
          </mxGeometry>
        </mxCell>
        <mxCell id="YC6k3Qt9G7ucdBLYfMGG-313" value="" style="endArrow=classic;html=1;rounded=0;exitX=0.5;exitY=0;exitDx=0;exitDy=0;exitPerimeter=0;" parent="1" source="YC6k3Qt9G7ucdBLYfMGG-252" edge="1">
          <mxGeometry width="50" height="50" relative="1" as="geometry">
            <mxPoint x="620" y="480" as="sourcePoint" />
            <mxPoint x="670" y="470" as="targetPoint" />
          </mxGeometry>
        </mxCell>
        <mxCell id="YC6k3Qt9G7ucdBLYfMGG-316" value="" style="endArrow=classic;html=1;rounded=0;" parent="1" edge="1">
          <mxGeometry width="50" height="50" relative="1" as="geometry">
            <mxPoint x="254.7" y="354.82" as="sourcePoint" />
            <mxPoint x="214.7" y="354.82" as="targetPoint" />
          </mxGeometry>
        </mxCell>
        <mxCell id="YC6k3Qt9G7ucdBLYfMGG-317" value="" style="endArrow=classic;html=1;rounded=0;" parent="1" edge="1">
          <mxGeometry width="50" height="50" relative="1" as="geometry">
            <mxPoint x="360" y="360" as="sourcePoint" />
            <mxPoint x="320" y="360" as="targetPoint" />
          </mxGeometry>
        </mxCell>
        <mxCell id="YC6k3Qt9G7ucdBLYfMGG-318" value="" style="endArrow=classic;html=1;rounded=0;" parent="1" edge="1">
          <mxGeometry width="50" height="50" relative="1" as="geometry">
            <mxPoint x="304.7" y="640" as="sourcePoint" />
            <mxPoint x="264.7" y="640" as="targetPoint" />
          </mxGeometry>
        </mxCell>
        <mxCell id="YC6k3Qt9G7ucdBLYfMGG-319" value="" style="endArrow=classic;html=1;rounded=0;" parent="1" edge="1">
          <mxGeometry width="50" height="50" relative="1" as="geometry">
            <mxPoint x="304.7" y="829.6" as="sourcePoint" />
            <mxPoint x="264.7" y="829.6" as="targetPoint" />
          </mxGeometry>
        </mxCell>
        <mxCell id="YC6k3Qt9G7ucdBLYfMGG-320" value="&lt;b&gt;Elaborazione ordini&lt;/b&gt;" style="text;html=1;strokeColor=none;fillColor=none;align=center;verticalAlign=middle;whiteSpace=wrap;rounded=0;" parent="1" vertex="1">
          <mxGeometry x="90" y="910" width="60" height="30" as="geometry" />
        </mxCell>
        <mxCell id="YC6k3Qt9G7ucdBLYfMGG-322" value="&lt;b&gt;Picking&lt;/b&gt;" style="text;html=1;strokeColor=none;fillColor=none;align=center;verticalAlign=middle;whiteSpace=wrap;rounded=0;" parent="1" vertex="1">
          <mxGeometry x="90" y="725" width="60" height="30" as="geometry" />
        </mxCell>
        <mxCell id="YC6k3Qt9G7ucdBLYfMGG-323" value="&lt;b&gt;Packing&lt;/b&gt;" style="text;html=1;strokeColor=none;fillColor=none;align=center;verticalAlign=middle;whiteSpace=wrap;rounded=0;" parent="1" vertex="1">
          <mxGeometry x="90" y="535" width="60" height="30" as="geometry" />
        </mxCell>
        <mxCell id="YC6k3Qt9G7ucdBLYfMGG-324" value="&lt;b&gt;Spedizione del corriere&lt;/b&gt;" style="text;html=1;strokeColor=none;fillColor=none;align=center;verticalAlign=middle;whiteSpace=wrap;rounded=0;" parent="1" vertex="1">
          <mxGeometry x="90" y="260" width="60" height="30" as="geometry" />
        </mxCell>
        <mxCell id="YC6k3Qt9G7ucdBLYfMGG-325" value="&lt;b&gt;Controllo&lt;br&gt;qualità&lt;br&gt;&lt;/b&gt;" style="text;html=1;strokeColor=none;fillColor=none;align=center;verticalAlign=middle;whiteSpace=wrap;rounded=0;" parent="1" vertex="1">
          <mxGeometry x="740" y="370" width="60" height="30" as="geometry" />
        </mxCell>
        <mxCell id="YC6k3Qt9G7ucdBLYfMGG-327" value="&lt;b&gt;Abbonato&lt;/b&gt;" style="text;html=1;strokeColor=none;fillColor=none;align=center;verticalAlign=middle;whiteSpace=wrap;rounded=0;" parent="1" vertex="1">
          <mxGeometry x="184.7" y="290" width="60" height="30" as="geometry" />
        </mxCell>
        <mxCell id="YC6k3Qt9G7ucdBLYfMGG-328" value="&lt;b&gt;Non abbonato&lt;/b&gt;" style="text;html=1;strokeColor=none;fillColor=none;align=center;verticalAlign=middle;whiteSpace=wrap;rounded=0;" parent="1" vertex="1">
          <mxGeometry x="395" y="290" width="60" height="30" as="geometry" />
        </mxCell>
        <mxCell id="YC6k3Qt9G7ucdBLYfMGG-332" value="" style="endArrow=none;html=1;rounded=0;" parent="1" edge="1">
          <mxGeometry width="50" height="50" relative="1" as="geometry">
            <mxPoint x="590" y="330" as="sourcePoint" />
            <mxPoint x="720" y="330" as="targetPoint" />
          </mxGeometry>
        </mxCell>
        <mxCell id="YC6k3Qt9G7ucdBLYfMGG-333" value="" style="endArrow=none;html=1;rounded=0;" parent="1" edge="1">
          <mxGeometry width="50" height="50" relative="1" as="geometry">
            <mxPoint x="720" y="330" as="sourcePoint" />
            <mxPoint x="720" y="880" as="targetPoint" />
          </mxGeometry>
        </mxCell>
        <mxCell id="iZD178p3HNZMwNOGALXq-2" value="" style="endArrow=none;html=1;rounded=0;entryX=0.5;entryY=1;entryDx=0;entryDy=0;" parent="1" target="YC6k3Qt9G7ucdBLYfMGG-259" edge="1">
          <mxGeometry width="50" height="50" relative="1" as="geometry">
            <mxPoint x="590" y="420" as="sourcePoint" />
            <mxPoint x="640" y="370" as="targetPoint" />
          </mxGeometry>
        </mxCell>
        <mxCell id="iZD178p3HNZMwNOGALXq-3" value="" style="endArrow=none;html=1;rounded=0;entryX=0.5;entryY=1;entryDx=0;entryDy=0;" parent="1" target="YC6k3Qt9G7ucdBLYfMGG-219" edge="1">
          <mxGeometry width="50" height="50" relative="1" as="geometry">
            <mxPoint x="320" y="590" as="sourcePoint" />
            <mxPoint x="370" y="540" as="targetPoint" />
          </mxGeometry>
        </mxCell>
        <mxCell id="iZD178p3HNZMwNOGALXq-4" value="" style="endArrow=none;html=1;rounded=0;entryX=0.5;entryY=1;entryDx=0;entryDy=0;" parent="1" target="YC6k3Qt9G7ucdBLYfMGG-295" edge="1">
          <mxGeometry width="50" height="50" relative="1" as="geometry">
            <mxPoint x="320" y="290" as="sourcePoint" />
            <mxPoint x="370" y="240" as="targetPoint" />
          </mxGeometry>
        </mxCell>
        <mxCell id="iZD178p3HNZMwNOGALXq-5" value="" style="endArrow=none;html=1;rounded=0;entryX=0.5;entryY=1;entryDx=0;entryDy=0;" parent="1" target="YC6k3Qt9G7ucdBLYfMGG-200" edge="1">
          <mxGeometry width="50" height="50" relative="1" as="geometry">
            <mxPoint x="320" y="780" as="sourcePoint" />
            <mxPoint x="370" y="730" as="targetPoint" />
          </mxGeometry>
        </mxCell>
        <mxCell id="iZD178p3HNZMwNOGALXq-6" value="$$\lambda_s$$" style="text;html=1;strokeColor=none;fillColor=none;align=center;verticalAlign=middle;whiteSpace=wrap;rounded=0;fontSize=16;" parent="1" vertex="1">
          <mxGeometry x="319.7" y="1030" width="60" height="30" as="geometry" />
        </mxCell>
        <mxCell id="iZD178p3HNZMwNOGALXq-7" value="$$\lambda_{p1}$$" style="text;html=1;strokeColor=none;fillColor=none;align=center;verticalAlign=middle;whiteSpace=wrap;rounded=0;fontSize=16;" parent="1" vertex="1">
          <mxGeometry x="349.7" y="850" width="60" height="30" as="geometry" />
        </mxCell>
        <mxCell id="iZD178p3HNZMwNOGALXq-8" value="$$\lambda_{p2}$$" style="text;html=1;strokeColor=none;fillColor=none;align=center;verticalAlign=middle;whiteSpace=wrap;rounded=0;fontSize=16;" parent="1" vertex="1">
          <mxGeometry x="335" y="680" width="60" height="30" as="geometry" />
        </mxCell>
        <mxCell id="iZD178p3HNZMwNOGALXq-9" value="$$\lambda_{q}$$" style="text;html=1;strokeColor=none;fillColor=none;align=center;verticalAlign=middle;whiteSpace=wrap;rounded=0;fontSize=16;" parent="1" vertex="1">
          <mxGeometry x="610" y="500" width="60" height="30" as="geometry" />
        </mxCell>
        <mxCell id="iZD178p3HNZMwNOGALXq-10" value="$$\lambda_{c}$$" style="text;html=1;strokeColor=none;fillColor=none;align=center;verticalAlign=middle;whiteSpace=wrap;rounded=0;fontSize=16;" parent="1" vertex="1">
          <mxGeometry x="244.7" y="420" width="60" height="30" as="geometry" />
        </mxCell>
        <mxCell id="iZD178p3HNZMwNOGALXq-11" value="" style="endArrow=classic;html=1;rounded=0;" parent="1" edge="1">
          <mxGeometry width="50" height="50" relative="1" as="geometry">
            <mxPoint x="720" y="880" as="sourcePoint" />
            <mxPoint x="335" y="880" as="targetPoint" />
            <Array as="points">
              <mxPoint x="430" y="880" />
            </Array>
          </mxGeometry>
        </mxCell>
      </root>
    </mxGraphModel>
  </diagram>
</mxfile>
